<svg width="50" height="50" viewBox="0 0 50 50" fill="none" xmlns="http://www.w3.org/2000/svg">
<g id="fluent:speaker-2-24-regular">
<path id="Vector" d="M31.25 8.85369C31.25 6.60369 28.5959 5.41411 26.9167 6.90577L17.5563 15.2287C17.2706 15.4832 16.9014 15.6241 16.5188 15.6245H8.85419C7.61171 15.6245 6.42005 16.1178 5.5411 16.996C4.66214 17.8742 4.16779 19.0654 4.16669 20.3079V29.6766C4.16669 30.9198 4.66055 32.1121 5.53962 32.9912C6.4187 33.8702 7.61098 34.3641 8.85419 34.3641H16.5209C16.9035 34.3646 17.2727 34.5054 17.5584 34.7599L26.9146 43.0787C28.5938 44.5724 31.25 43.3808 31.25 41.1329V8.85369ZM19.6354 17.562L28.125 10.012V39.9745L19.6354 32.4266C18.7775 31.6633 17.6692 31.2415 16.5209 31.2412H8.85419C8.43979 31.2412 8.04236 31.0766 7.74933 30.7835C7.45631 30.4905 7.29169 30.0931 7.29169 29.6787V20.3079C7.29169 19.8935 7.45631 19.496 7.74933 19.203C8.04236 18.91 8.43979 18.7454 8.85419 18.7454H16.5209C17.6689 18.7456 18.7772 18.3246 19.6354 17.562ZM39.5667 12.2849C39.8996 12.0383 40.3169 11.934 40.7267 11.9949C41.1365 12.0558 41.5054 12.2771 41.7521 12.6099C44.4091 16.1936 45.8403 20.5383 45.8334 24.9995C45.8396 29.461 44.4077 33.8056 41.75 37.3891C41.6292 37.5574 41.4761 37.7001 41.2997 37.8087C41.1232 37.9173 40.9269 37.9898 40.7222 38.0218C40.5175 38.0538 40.3085 38.0448 40.1073 37.9953C39.9061 37.9458 39.7167 37.8568 39.5503 37.7334C39.3838 37.6101 39.2435 37.4548 39.1376 37.2767C39.0317 37.0987 38.9623 36.9013 38.9334 36.6961C38.9045 36.4909 38.9166 36.2821 38.9692 36.0816C39.0218 35.8812 39.1137 35.6933 39.2396 35.5287C41.4984 32.4835 42.7149 28.791 42.7084 24.9995C42.7144 21.2088 41.498 17.5171 39.2396 14.4724C39.1173 14.3074 39.0287 14.1199 38.9789 13.9205C38.9291 13.7212 38.9191 13.514 38.9495 13.3109C38.9799 13.1077 39.05 12.9125 39.1559 12.7364C39.2618 12.5604 39.4014 12.407 39.5667 12.2849ZM35.7146 17.4349C35.895 17.3371 36.093 17.2757 36.2971 17.2544C36.5012 17.2331 36.7076 17.2522 36.9043 17.3106C37.1011 17.369 37.2844 17.4656 37.4438 17.5949C37.6032 17.7242 37.7356 17.8836 37.8334 18.0641C38.95 20.1287 39.5834 22.4912 39.5834 24.9995C39.5868 27.4203 38.9853 29.8037 37.8334 31.9329C37.7357 32.1134 37.6034 32.273 37.4441 32.4024C37.2847 32.5319 37.1015 32.6287 36.9047 32.6873C36.708 32.7459 36.5016 32.7652 36.2974 32.7441C36.0932 32.7229 35.8952 32.6618 35.7146 32.5641C35.534 32.4664 35.3745 32.3342 35.245 32.1748C35.1156 32.0155 35.0188 31.8322 34.9602 31.6355C34.9016 31.4387 34.8823 31.2324 34.9034 31.0282C34.9245 30.824 34.9857 30.6259 35.0834 30.4454C35.9584 28.8266 36.4584 26.9724 36.4584 24.9974C36.4607 23.096 35.988 21.2241 35.0834 19.5516C34.8866 19.1872 34.8425 18.7595 34.9609 18.3626C35.0792 17.9657 35.3503 17.632 35.7146 17.4349Z" fill="#0145E6"/>
</g>
</svg>
