<svg width="50" height="50" viewBox="0 0 50 50" fill="none" xmlns="http://www.w3.org/2000/svg">
<g id="lucide:files">
<g id="Group">
<path id="Vector" d="M32.2917 4.16699H17.9167C17.0833 4.16699 16.25 4.58366 15.625 5.20866C15 5.83366 14.5833 6.66699 14.5833 7.50033V34.167C14.5833 35.0003 15 35.8337 15.625 36.4587C16.25 37.0837 17.0833 37.5003 17.9167 37.5003H38.3333C39.1667 37.5003 40 37.0837 40.625 36.4587C41.25 35.8337 41.6667 35.0003 41.6667 34.167V13.542L32.2917 4.16699Z" stroke="#0145E6" stroke-width="3" stroke-linecap="round" stroke-linejoin="round"/>
<path id="Vector_2" d="M6.25 15.8337V42.5003C6.25 43.3337 6.66667 44.167 7.29167 44.792C7.91667 45.417 8.75 45.8337 9.58333 45.8337H30M31.25 4.16699V14.5837H41.6667" stroke="#0145E6" stroke-width="3" stroke-linecap="round" stroke-linejoin="round"/>
</g>
</g>
</svg>
