<svg width="76" height="76" viewBox="0 0 76 76" fill="none" xmlns="http://www.w3.org/2000/svg">
<g id="material-symbols:drag-click">
<path id="Vector" d="M38 57C32.8805 57 28.5 55.2584 24.8583 51.775C21.2166 48.2917 19.2639 44.0167 19 38.95L25.65 40.9292C26.3361 43.7792 27.8139 46.1141 30.0833 47.9339C32.3528 49.7537 34.9916 50.6646 38 50.6667C41.4833 50.6667 44.4653 49.4264 46.9458 46.9459C49.4264 44.4653 50.6666 41.4834 50.6666 38C50.6666 34.9917 49.7557 32.3528 47.9338 30.0834C46.1119 27.8139 43.777 26.3362 40.9291 25.65L38.95 19C44.0167 19.2639 48.2917 21.2167 51.775 24.8584C55.2583 28.5 57 32.8806 57 38C57 43.2778 55.1528 47.7639 51.4583 51.4584C47.7639 55.1528 43.2778 57 38 57ZM38 69.6667C33.6194 69.6667 29.5028 68.8349 25.65 67.1714C21.7972 65.5078 18.4458 63.2521 15.5958 60.4042C12.7458 57.5542 10.4901 54.2028 8.82865 50.35C7.1672 46.4973 6.33542 42.3806 6.33331 38V36.575C6.33331 36.1 6.38609 35.625 6.49165 35.15L12.6666 37.05V38C12.6666 45.0723 15.1208 51.0625 20.0291 55.9709C24.9375 60.8792 30.9278 63.3334 38 63.3334C45.0722 63.3334 51.0625 60.8792 55.9708 55.9709C60.8792 51.0625 63.3333 45.0723 63.3333 38C63.3333 30.9278 60.8792 24.9375 55.9708 20.0292C51.0625 15.1209 45.0722 12.6667 38 12.6667H37.05L35.15 6.49171C35.625 6.38615 36.1 6.33337 36.575 6.33337H38C42.3805 6.33337 46.4972 7.16515 50.35 8.82871C54.2028 10.4923 57.5542 12.748 60.4042 15.5959C63.2542 18.4459 65.5109 21.7973 67.1745 25.65C68.838 29.5028 69.6688 33.6195 69.6667 38C69.6667 42.3806 68.8349 46.4973 67.1713 50.35C65.5078 54.2028 63.252 57.5542 60.4042 60.4042C57.5542 63.2542 54.2028 65.511 50.35 67.1745C46.4972 68.8381 42.3805 69.6688 38 69.6667ZM33.3291 39.5834L19.7916 26.0459L15.8333 38L6.33331 6.33337L38 15.8334L26.0458 19.7917L39.5833 33.3292L33.3291 39.5834Z" fill="#0145E6"/>
</g>
</svg>
