<svg width="50" height="50" viewBox="0 0 50 50" fill="none" xmlns="http://www.w3.org/2000/svg">
<g id="material-symbols:speech-to-text">
<path id="Vector" d="M35.4167 20.8337C34.2708 20.8337 33.2896 20.4344 32.4729 19.6357C31.6563 18.8371 31.2486 17.8476 31.25 16.667V8.33366C31.25 7.15311 31.6583 6.16352 32.475 5.36491C33.2917 4.5663 34.2722 4.167 35.4167 4.167C36.5972 4.167 37.5868 4.5663 38.3854 5.36491C39.184 6.16352 39.5833 7.15311 39.5833 8.33366V16.667C39.5833 17.8476 39.184 18.8371 38.3854 19.6357C37.5868 20.4344 36.5972 20.8337 35.4167 20.8337ZM10.4167 45.8337C9.27084 45.8337 8.28959 45.4253 7.47292 44.6087C6.65625 43.792 6.24861 42.8114 6.25 41.667V8.33366C6.25 7.18783 6.65834 6.20658 7.475 5.38991C8.29167 4.57325 9.27223 4.16561 10.4167 4.167H27.0833V8.33366H10.4167V41.667H33.3333V37.5003H37.5V41.667C37.5 42.8128 37.0917 43.7941 36.275 44.6107C35.4583 45.4274 34.4778 45.8351 33.3333 45.8337H10.4167ZM14.5833 37.5003V33.3337H29.1667V37.5003H14.5833ZM14.5833 31.2503V27.0837H25V31.2503H14.5833ZM37.5 33.3337H33.3333V27.917C30.6597 27.4309 28.4285 26.1371 26.6396 24.0357C24.8507 21.9344 23.9569 19.4781 23.9583 16.667H28.125C28.125 18.6809 28.8368 20.3996 30.2604 21.8232C31.684 23.2469 33.4028 23.9587 35.4167 23.9587C37.4653 23.9587 39.1931 23.2469 40.6 21.8232C42.007 20.3996 42.7097 18.6809 42.7083 16.667H46.875C46.875 19.4795 45.9896 21.9364 44.2188 24.0378C42.4479 26.1392 40.2083 27.4323 37.5 27.917V33.3337Z" fill="#0145E6"/>
</g>
</svg>
