<svg width="76" height="76" viewBox="0 0 76 76" fill="none" xmlns="http://www.w3.org/2000/svg">
<g id="ph:files">
<path id="Vector" d="M63.4303 19.6947L51.5553 7.81969C51.3346 7.59921 51.0726 7.42437 50.7843 7.30518C50.496 7.18598 50.187 7.12476 49.875 7.125H26.125C24.8652 7.125 23.657 7.62545 22.7662 8.51624C21.8754 9.40704 21.375 10.6152 21.375 11.875V16.625H16.625C15.3652 16.625 14.157 17.1254 13.2662 18.0162C12.3754 18.907 11.875 20.1152 11.875 21.375V64.125C11.875 65.3848 12.3754 66.593 13.2662 67.4838C14.157 68.3746 15.3652 68.875 16.625 68.875H49.875C51.1348 68.875 52.343 68.3746 53.2338 67.4838C54.1246 66.593 54.625 65.3848 54.625 64.125V59.375H59.375C60.6348 59.375 61.843 58.8746 62.7338 57.9838C63.6246 57.093 64.125 55.8848 64.125 54.625V21.375C64.1252 21.063 64.064 20.754 63.9448 20.4657C63.8256 20.1774 63.6508 19.9154 63.4303 19.6947ZM49.875 64.125H16.625V21.375H39.3923L49.875 31.8577V64.125ZM59.375 54.625H54.625V30.875C54.6252 30.563 54.564 30.254 54.4448 29.9657C54.3256 29.6774 54.1508 29.4154 53.9303 29.1947L42.0553 17.3197C41.8346 17.0992 41.5726 16.9244 41.2843 16.8052C40.996 16.686 40.687 16.6248 40.375 16.625H26.125V11.875H48.8923L59.375 22.3577V54.625ZM42.75 45.125C42.75 45.7549 42.4998 46.359 42.0544 46.8044C41.609 47.2498 41.0049 47.5 40.375 47.5H26.125C25.4951 47.5 24.891 47.2498 24.4456 46.8044C24.0002 46.359 23.75 45.7549 23.75 45.125C23.75 44.4951 24.0002 43.891 24.4456 43.4456C24.891 43.0002 25.4951 42.75 26.125 42.75H40.375C41.0049 42.75 41.609 43.0002 42.0544 43.4456C42.4998 43.891 42.75 44.4951 42.75 45.125ZM42.75 54.625C42.75 55.2549 42.4998 55.859 42.0544 56.3044C41.609 56.7498 41.0049 57 40.375 57H26.125C25.4951 57 24.891 56.7498 24.4456 56.3044C24.0002 55.859 23.75 55.2549 23.75 54.625C23.75 53.9951 24.0002 53.391 24.4456 52.9456C24.891 52.5002 25.4951 52.25 26.125 52.25H40.375C41.0049 52.25 41.609 52.5002 42.0544 52.9456C42.4998 53.391 42.75 53.9951 42.75 54.625Z" fill="#0145E6"/>
</g>
</svg>
