<svg width="50" height="50" viewBox="0 0 50 50" fill="none" xmlns="http://www.w3.org/2000/svg">
<g id="uis:process">
<path id="Vector" d="M17.7083 12.5001H13.9583C17.0833 9.79175 20.8333 8.33342 25 8.33342C25.625 8.33342 26.25 8.33342 26.875 8.54175C27.9167 8.75008 28.9583 7.91675 29.1667 6.66675C29.375 5.62508 28.5417 4.58341 27.2917 4.37508C26.4583 4.16675 25.8333 4.16675 25 4.16675C20 4.16675 15.2083 6.04175 11.4583 9.16675V6.25008C11.4583 5.00008 10.625 4.16675 9.37501 4.16675C8.12501 4.16675 7.29167 5.00008 7.29167 6.25008V14.5834C7.29167 15.8334 8.12501 16.6667 9.37501 16.6667H17.7083C18.9583 16.6667 19.7917 15.8334 19.7917 14.5834C19.7917 13.3334 18.9583 12.5001 17.7083 12.5001ZM14.5833 30.2084C13.3333 30.2084 12.5 31.0418 12.5 32.2918V36.0418C9.79167 32.9168 8.33334 29.1668 8.33334 25.0001C8.33334 24.3751 8.33334 23.7501 8.54167 23.1251C8.75001 22.0834 7.91667 21.0418 6.66667 20.8334C5.62501 20.6251 4.58334 21.4584 4.375 22.7084C4.16667 23.5418 4.16667 24.1668 4.16667 25.0001C4.16667 30.0001 6.04167 34.7918 9.16667 38.5418H6.25001C5.00001 38.5418 4.16667 39.3751 4.16667 40.6251C4.16667 41.8751 5.00001 42.7084 6.25001 42.7084H14.5833C15.2083 42.7084 15.8333 42.2918 16.25 41.8751C16.25 41.6668 16.4583 41.4584 16.4583 41.2501V32.2918C16.6667 31.0418 15.8333 30.2084 14.5833 30.2084ZM43.75 11.4584C45 11.4584 45.8333 10.6251 45.8333 9.37508C45.8333 8.12508 45 7.29175 43.75 7.29175H35C34.7917 7.29175 34.5833 7.50008 34.375 7.50008C34.1667 7.70842 33.9583 7.70842 33.9583 7.91675C33.9583 8.12508 33.75 8.33342 33.75 8.33342V17.2918C33.75 18.5418 34.5833 19.3751 35.8333 19.3751C37.0833 19.3751 37.9167 18.5418 37.9167 17.2918V13.9584C40.625 16.8751 42.0833 20.8334 42.0833 25.0001C42.0833 25.6251 42.0833 26.2501 41.875 26.8751C41.6667 27.9168 42.5 28.9584 43.75 29.1668H43.9583C45 29.1668 45.8333 28.3334 46.0417 27.2918C46.0417 26.4584 46.25 25.8334 46.25 25.0001C46.25 20.0001 44.375 15.2084 41.25 11.4584H43.75ZM42.2917 34.3751L41.6667 33.7501C41.4583 33.5418 41.25 33.5418 41.0417 33.5418H32.2917C31.0417 33.5418 30.2083 34.3751 30.2083 35.6251C30.2083 36.8751 31.0417 37.7084 32.2917 37.7084H36.0417C33.125 40.4168 29.1667 41.8751 25 41.8751C24.375 41.8751 23.75 41.8751 23.125 41.6668C22.0833 41.4584 21.0417 42.2918 20.8333 43.5418C20.625 44.7918 21.4583 45.6251 22.7083 45.8334C23.5417 45.8334 24.1667 46.0418 25 46.0418C30 46.0418 34.7917 44.1668 38.5417 41.0418V43.7501C38.5417 45.0001 39.375 45.8334 40.625 45.8334C41.875 45.8334 42.7083 45.0001 42.7083 43.7501V35.4168C42.7083 35.0001 42.5 34.5834 42.2917 34.3751Z" fill="#0145E6"/>
</g>
</svg>
