<svg width="37" height="24" viewBox="0 0 37 24" fill="none" xmlns="http://www.w3.org/2000/svg">
<g id="diners-fbcbd3360f8e3f629cdaa80e93abdb8b" clip-path="url(#clip0_186_5979)">
<g id="319">
<g id="New-Icons">
<g id="Card-Brands">
<g id="Color">
<g id="Diners-Club">
<path id="shape" d="M33.4959 23.6249L33.4991 23.6249C34.9317 23.6372 36.1071 22.4659 36.125 21.0062L36.125 3.00945C36.1193 2.30353 35.8383 1.62926 35.3446 1.1352C34.8522 0.642403 34.1884 0.369223 33.4959 0.375106L3.50096 0.375093C2.81164 0.369223 2.14786 0.642403 1.65542 1.1352C1.16172 1.62926 0.880757 2.30353 0.875012 3.0064L0.875 20.9905C0.880757 21.6965 1.16172 22.3707 1.65542 22.8648C2.14786 23.3576 2.81164 23.6308 3.50415 23.6249H33.4959ZM33.4943 24.3749L33.4927 24.3749L33.4959 24.3749H33.4943Z" fill="white" stroke="black" stroke-opacity="0.2" stroke-width="0.5"/>
<path id="shape_2" d="M15.5033 3.07771V3.05371H21.5033V3.07771C26.2065 3.42187 29.8465 7.33799 29.8465 12.0537C29.8465 16.7694 26.2065 20.6856 21.5033 21.0297V21.0537H15.5033V21.0297C10.8002 20.6856 7.16016 16.7694 7.16016 12.0537C7.16016 7.33799 10.8002 3.42187 15.5033 3.07771Z" fill="#0165AC"/>
<path id="shape_3" d="M17.9027 17.1417C20.0557 16.3762 21.4938 14.3386 21.4938 12.0537C21.4938 9.76871 20.0557 7.73109 17.9027 6.96566V17.1417ZM14.3027 6.96566C12.1498 7.73109 10.7117 9.76871 10.7117 12.0537C10.7117 14.3386 12.1498 16.3762 14.3027 17.1417V6.96566ZM16.1027 19.8537C11.7949 19.8537 8.30273 16.3615 8.30273 12.0537C8.30273 7.74584 11.7949 4.25366 16.1027 4.25366C20.4106 4.25366 23.9027 7.74584 23.9027 12.0537C23.9027 16.3615 20.4106 19.8537 16.1027 19.8537Z" fill="white"/>
</g>
</g>
</g>
</g>
</g>
</g>
<defs>
<clipPath id="clip0_186_5979">
<rect width="36" height="24" fill="white" transform="translate(0.5)"/>
</clipPath>
</defs>
</svg>
