<svg width="36" height="24" viewBox="0 0 36 24" fill="none" xmlns="http://www.w3.org/2000/svg">
<g id="amex-a49b82f46c5cd6a96a6e418a6ca1717c" clip-path="url(#clip0_186_5955)">
<g id="Group">
<path id="Vector" d="M33 0H3C1.34315 0 0 1.34315 0 3V21C0 22.6569 1.34315 24 3 24H33C34.6569 24 36 22.6569 36 21V3C36 1.34315 34.6569 0 33 0Z" fill="#016FD0"/>
<path id="Vector_2" fill-rule="evenodd" clip-rule="evenodd" d="M20.6465 20.0907V11.5386L35.8678 11.5522V13.9146L34.1085 15.7947L35.8678 17.692V20.1045H33.0589L31.5661 18.4572L30.0839 20.1107L20.6465 20.0907Z" fill="#FFFFFE"/>
<path id="Vector_3" fill-rule="evenodd" clip-rule="evenodd" d="M21.6631 19.1533V12.48H27.3215V14.0173H23.4952V15.0608H27.2303V16.5726H23.4952V17.5975H27.3215V19.1533H21.6631Z" fill="#016FD0"/>
<path id="Vector_4" fill-rule="evenodd" clip-rule="evenodd" d="M27.2931 19.1532L30.4241 15.8127L27.293 12.48H29.7164L31.6297 14.595L33.5483 12.48H35.8676V12.5325L32.8033 15.8127L35.8676 19.0585V19.1532H33.525L31.5778 17.0169L29.6507 19.1532H27.2931Z" fill="#016FD0"/>
<path id="Vector_5" fill-rule="evenodd" clip-rule="evenodd" d="M21.3563 3.948H25.0254L26.3141 6.87427V3.948H30.8438L31.625 6.14035L32.4088 3.948H35.8677V12.5001H17.5879L21.3563 3.948Z" fill="#FFFFFE"/>
<g id="Group_2">
<path id="Vector_6" fill-rule="evenodd" clip-rule="evenodd" d="M22.0509 4.87695L19.0898 11.5447H21.1207L21.6793 10.2095H24.7062L25.2645 11.5447H27.3458L24.3972 4.87695H22.0509ZM22.3053 8.71311L23.1933 6.5905L24.0807 8.71311H22.3053Z" fill="#016FD0"/>
<path id="Vector_7" fill-rule="evenodd" clip-rule="evenodd" d="M27.3184 11.5436V4.87598L30.173 4.88579L31.6419 8.98488L33.1204 4.87598H35.8678V11.5436L34.0999 11.5592V6.97923L32.431 11.5436H30.8173L29.1139 6.96358V11.5436H27.3184Z" fill="#016FD0"/>
</g>
</g>
</g>
<defs>
<clipPath id="clip0_186_5955">
<rect width="36" height="24" fill="white"/>
</clipPath>
</defs>
</svg>
