<svg width="37" height="24" viewBox="0 0 37 24" fill="none" xmlns="http://www.w3.org/2000/svg">
<g id="mastercard-4d8844094130711885b5e41b28c9848f" clip-path="url(#clip0_186_5973)">
<g id="Group">
<path id="Vector" d="M33.5 0H3.5C1.84315 0 0.5 1.34315 0.5 3V21C0.5 22.6569 1.84315 24 3.5 24H33.5C35.1569 24 36.5 22.6569 36.5 21V3C36.5 1.34315 35.1569 0 33.5 0Z" fill="#252525"/>
<path id="Vector_2" d="M14 19.5C18.1421 19.5 21.5 16.1421 21.5 12C21.5 7.85786 18.1421 4.5 14 4.5C9.85786 4.5 6.5 7.85786 6.5 12C6.5 16.1421 9.85786 19.5 14 19.5Z" fill="#EB001B"/>
<path id="Vector_3" d="M23 19.5C27.1421 19.5 30.5 16.1421 30.5 12C30.5 7.85786 27.1421 4.5 23 4.5C18.8579 4.5 15.5 7.85786 15.5 12C15.5 16.1421 18.8579 19.5 23 19.5Z" fill="#F79E1B"/>
<path id="Vector_4" fill-rule="evenodd" clip-rule="evenodd" d="M18.5 5.99951C20.3217 7.36782 21.5 9.54633 21.5 12.0001C21.5 14.4538 20.3217 16.6323 18.5 18.0006C16.6783 16.6323 15.5 14.4538 15.5 12.0001C15.5 9.54633 16.6783 7.36782 18.5 5.99951Z" fill="#FF5F00"/>
</g>
</g>
<defs>
<clipPath id="clip0_186_5973">
<rect width="36" height="24" fill="white" transform="translate(0.5)"/>
</clipPath>
</defs>
</svg>
