<svg width="36" height="24" viewBox="0 0 36 24" fill="none" xmlns="http://www.w3.org/2000/svg">
<g id="visa-729c05c240c4bdb47b03ac81d9945bfe" clip-path="url(#clip0_186_5965)">
<g id="319">
<g id="New-Icons">
<g id="Card-Brands">
<g id="Color">
<g id="Visa">
<path id="Container" d="M32.625 0.375H3.375C1.71815 0.375 0.375 1.71815 0.375 3.375V20.625C0.375 22.2819 1.71815 23.625 3.375 23.625H32.625C34.2819 23.625 35.625 22.2819 35.625 20.625V3.375C35.625 1.71815 34.2819 0.375 32.625 0.375Z" fill="white" stroke="black" stroke-opacity="0.2" stroke-width="0.5"/>
<path id="Shape" d="M4.1816 8.87166C3.39689 8.44126 2.50131 8.09511 1.5 7.85489L1.542 7.66782H5.64747C6.20394 7.68733 6.65549 7.85476 6.80242 8.44607L7.69465 12.6999L7.96798 13.9811L10.4669 7.66782H13.1652L9.15432 16.9163H6.45595L4.1816 8.87166ZM15.15 16.9261H12.5982L14.1943 7.66782H16.7459L15.15 16.9261ZM24.4002 7.89416L24.0531 9.89338L23.8223 9.79507C23.3606 9.60787 22.7511 9.4208 21.9216 9.44057C20.9141 9.44057 20.4623 9.84416 20.4518 10.2382C20.4518 10.6716 20.9984 10.9573 21.8909 11.3809C23.361 12.0408 24.043 12.8483 24.0328 13.9023C24.0121 15.823 22.269 17.0641 19.5916 17.0641C18.4468 17.0541 17.3442 16.8271 16.7457 16.5714L17.1028 14.4931L17.4388 14.641C18.2683 14.9861 18.8142 15.1335 19.833 15.1335C20.5676 15.1335 21.3553 14.8476 21.3654 14.2273C21.3654 13.8235 21.0298 13.5278 20.0426 13.0747C19.0767 12.6313 17.7853 11.8927 17.8062 10.563C17.8171 8.76064 19.5916 7.5 22.1115 7.5C23.0986 7.5 23.8969 7.70683 24.4002 7.89416ZM27.7916 13.6462H29.9126C29.8077 13.1833 29.3244 10.9672 29.3244 10.9672L29.1461 10.1695C29.0201 10.5141 28.7998 11.0756 28.8104 11.0558C28.8104 11.0558 28.0018 13.1144 27.7916 13.6462ZM30.9414 7.66782L33 16.926H30.6374C30.6374 16.926 30.4061 15.8622 30.3329 15.5372H27.0567C26.9619 15.7833 26.5211 16.926 26.5211 16.926H23.8437L27.634 8.43599C27.8966 7.83512 28.359 7.66782 28.9676 7.66782H30.9414Z" fill="#1434CB"/>
</g>
</g>
</g>
</g>
</g>
</g>
<defs>
<clipPath id="clip0_186_5965">
<rect width="36" height="24" fill="white"/>
</clipPath>
</defs>
</svg>
