<svg width="12" height="199" viewBox="0 0 12 199" fill="none" xmlns="http://www.w3.org/2000/svg">
<path id="Line 27" d="M6 0.666667C3.05448 0.666667 0.666666 3.05448 0.666667 6C0.666667 8.94552 3.05448 11.3333 6 11.3333C8.94552 11.3333 11.3333 8.94552 11.3333 6C11.3333 3.05448 8.94552 0.666666 6 0.666667ZM6.00001 187.667C3.05449 187.667 0.666675 190.054 0.666675 193C0.666675 195.946 3.05449 198.333 6.00001 198.333C8.94553 198.333 11.3333 195.946 11.3333 193C11.3333 190.054 8.94553 187.667 6.00001 187.667ZM5 6L5.00001 193L7.00001 193L7 6L5 6Z" fill="white"/>
</svg>
