<svg width="40" height="40" viewBox="0 0 40 40" fill="none" xmlns="http://www.w3.org/2000/svg">
<g id="solar:card-linear">
<g id="Group">
<path id="Vector" d="M3.33301 20.0001C3.33301 13.7151 3.33301 10.5717 5.28634 8.62008C7.23801 6.66675 10.3813 6.66675 16.6663 6.66675H23.333C29.618 6.66675 32.7613 6.66675 34.713 8.62008C36.6663 10.5717 36.6663 13.7151 36.6663 20.0001C36.6663 26.2851 36.6663 29.4284 34.713 31.3801C32.7613 33.3334 29.618 33.3334 23.333 33.3334H16.6663C10.3813 33.3334 7.23801 33.3334 5.28634 31.3801C3.33301 29.4284 3.33301 26.2851 3.33301 20.0001Z" stroke="#0145E6" stroke-width="1.5"/>
<path id="Vector_2" d="M16.6663 26.6667H9.99967M23.333 26.6667H20.833M3.33301 16.6667H36.6663" stroke="#0145E6" stroke-width="1.5" stroke-linecap="round"/>
</g>
</g>
</svg>
